Coordinates
version=1
nRows=26
nColumns=24
inDegrees=yes

Units are S.I. units (second, meters, Newtons, ...)
Angles are in degrees.

endheader
time	pelvis_tilt	pelvis_list	pelvis_rotation	pelvis_tx	pelvis_ty	pelvis_tz	hip_flexion_r	hip_adduction_r	hip_rotation_r	knee_angle_r	ankle_angle_r	subtalar_angle_r	mtp_angle_r	hip_flexion_l	hip_adduction_l	hip_rotation_l	knee_angle_l	ankle_angle_l	subtalar_angle_l	mtp_angle_l	lumbar_extension	lumbar_bending	lumbar_rotation
      1.57500000	     -8.50037605	     -1.26054181	      5.69908947	     -0.12456488	      1.27906828	     -0.92314051	     34.97891271	      0.03847972	     -1.02858475	    -32.94947466	      1.07262649	    -19.02050808	      3.46497582	      0.69566663	      6.97686646	     18.27674263	     -3.68367244	      3.96867030	    -19.95877716	      2.86497584	     -0.81977097	      0.89937631	     -8.85884953
      1.58000000	     -8.62027679	     -1.20560999	      5.85262130	     -0.11942879	      1.27820279	     -0.92310840	     35.18699752	     -0.06280014	     -0.69902110	    -31.26011926	      1.04932882	    -19.19947603	      3.26658560	      0.47712377	      7.03094538	     18.43925437	     -3.76826918	      4.30002113	    -19.97604376	      2.94577821	     -0.78167241	      0.80579079	     -9.04950436
      1.58500000	     -8.74322737	     -1.14642397	      5.98934402	     -0.11425694	      1.27731401	     -0.92302211	     35.37115359	     -0.15525775	     -0.33784555	    -29.55004675	      1.04589040	    -19.34722828	      3.02472327	      0.25582895	      7.08317763	     18.56285380	     -3.84536676	      4.64199269	    -19.94754295	      3.03548323	     -0.73501040	      0.70500158	     -9.24118398
      1.59000000	     -8.91369240	     -1.06844642	      6.10038557	     -0.10902470	      1.27633999	     -0.92289597	     35.60294975	     -0.26222326	      0.05693997	    -27.87257324	      1.19181364	    -19.28545519	      2.92270531	      0.06801046	      7.15683124	     18.65344776	     -3.89524998	      4.92383190	    -19.99056160	      3.06404342	     -0.63110855	      0.58399505	     -9.41953525
      1.59500000	     -9.01032794	     -1.01739651	      6.24472618	     -0.10381728	      1.27546889	     -0.92276754	     35.67891719	     -0.34761157	      0.42797605	    -26.08550362	      1.12407032	    -19.40092727	      2.44279774	     -0.16316253	      7.19190067	     18.71359102	     -4.01140598	      5.36784816	    -19.71659868	      3.25125922	     -0.61339726	      0.49367581	     -9.64170354
      1.60000000	     -9.19902433	     -0.94551141	      6.35628350	     -0.09853191	      1.27445523	     -0.92260505	     35.85193913	     -0.45473912	      0.83787411	    -24.33473700	      1.25988286	    -19.20063777	      2.33389486	     -0.30031944	      7.26853669	     18.75390228	     -4.12878985	      5.66573124	    -19.75427548	      3.28230486	     -0.48031019	      0.36821902	     -9.77607834
      1.60500000	     -9.31164383	     -0.88216447	      6.48354860	     -0.09321282	      1.27352823	     -0.92238698	     35.85815566	     -0.54777689	      1.25145872	    -22.47553983	      1.25917002	    -19.02654872	      1.76658388	     -0.49939284	      7.31653775	     18.68130559	     -4.29011956	      6.16122324	    -19.32047146	      3.48869810	     -0.42951025	      0.25018267	     -9.93808593
      1.61000000	     -9.47336543	     -0.82310021	      6.65397574	     -0.08785247	      1.27253753	     -0.92226501	     35.86382795	     -0.68757965	      1.61167207	    -20.56592361	      1.24790427	    -18.73547560	      1.64991192	     -0.64686798	      7.37900349	     18.76405374	     -4.45301195	      6.49433034	    -19.25298281	      3.54292090	     -0.31719108	      0.13391756	    -10.14392157
      1.61500000	     -9.59391229	     -0.74621286	      6.80816076	     -0.08237870	      1.27155001	     -0.92206443	     35.74775366	     -0.82479237	      2.04084115	    -18.57380536	      1.19780145	    -18.43374129	      1.46781035	     -0.85776799	      7.44194057	     18.72075773	     -4.59681483	      6.90233619	    -18.94935669	      3.67074114	     -0.23921901	      0.00340372	    -10.37358842
      1.62000000	     -9.76809023	     -0.64880503	      6.98361088	     -0.07687465	      1.27045742	     -0.92189456	     35.67083841	     -1.01694478	      2.43572062	    -16.60501451	      1.05730733	    -18.00171692	      1.40071438	     -0.98565456	      7.54826209	     18.72569037	     -4.80267199	      7.26270793	    -18.76567513	      3.76116729	     -0.09505125	     -0.16661539	    -10.55112078
      1.62500000	     -9.93233667	     -0.52517016	      7.15658028	     -0.07130565	      1.26932624	     -0.92165721	     35.56970667	     -1.23230996	      2.84630182	    -14.68627080	      0.93302490	    -17.49570330	      1.35192809	     -1.13528936	      7.67191740	     18.67508533	     -5.00069341	      7.66720788	    -18.45302556	      3.89352675	      0.03890681	     -0.36720732	    -10.77278072
      1.63000000	    -10.13905271	     -0.37889744	      7.32444954	     -0.06570791	      1.26811541	     -0.92141092	     35.53656178	     -1.47932620	      3.24537762	    -12.88095271	      0.80080122	    -16.88488872	      1.34537641	     -1.22535075	      7.83369388	     18.61603689	     -5.23663276	      8.03127001	    -18.20252003	      4.00933758	      0.22415282	     -0.59940402	    -10.95459412
      1.63500000	    -10.34867855	     -0.22334788	      7.49200332	     -0.06008380	      1.26688441	     -0.92113410	     35.52888405	     -1.73897768	      3.61481277	    -11.19879063	      0.69410845	    -16.18120488	      1.34903206	     -1.30571918	      8.00348680	     18.53487102	     -5.49173755	      8.42085572	    -17.88452009	      4.15227925	      0.41097532	     -0.84159582	    -11.15628056
      1.64000000	    -10.57003760	     -0.05000846	      7.64038802	     -0.05444185	      1.26562938	     -0.92081245	     35.57629873	     -2.00540378	      3.98314151	     -9.68000608	      0.63032200	    -15.38658774	      1.34538352	     -1.36873964	      8.19285691	     18.41490604	     -5.76280600	      8.81816008	    -17.51642287	      4.31575501	      0.61019217	     -1.10197306	    -11.35664686
      1.64500000	    -10.80850324	      0.09921126	      7.80102934	     -0.04875267	      1.26438460	     -0.92053432	     35.64155187	     -2.26101931	      4.28725540	     -8.25067165	      0.48762987	    -14.65500337	      1.34267650	     -1.39593234	      8.36730968	     18.32217099	     -6.06810486	      9.13435315	    -17.28566453	      4.43374900	      0.84290597	     -1.33874423	    -11.51232024
      1.65000000	    -11.03846855	      0.25334449	      7.95338806	     -0.04304771	      1.26315284	     -0.92022663	     35.73567534	     -2.51116291	      4.56709151	     -6.99403983	      0.39616724	    -13.85760718	      1.32171794	     -1.42049931	      8.54307652	     18.19126241	     -6.39921196	      9.50003195	    -16.93573624	      4.59534213	      1.06137027	     -1.57187349	    -11.68894704
      1.65500000	    -11.22664500	      0.43774275	      8.07569015	     -0.03735834	      1.26197300	     -0.91987783	     35.79579700	     -2.75328093	      4.97838325	     -5.85537989	      0.24970537	    -13.33244835	      1.33673524	     -1.52404056	      8.74110920	     18.13211996	     -6.66688402	      9.63092942	    -16.89435861	      4.62852093	      1.22464755	     -1.82342480	    -11.83147174
      1.66000000	    -11.47931699	      0.56795206	      8.24343143	     -0.03158888	      1.26075456	     -0.91955069	     35.99932839	     -2.97884045	      5.09708237	     -4.98484202	      0.21798658	    -12.41740336	      1.24467241	     -1.45924330	      8.89730255	     17.92019894	     -7.12609106	     10.16951478	    -16.24403754	      4.91923712	      1.47342878	     -2.03476387	    -12.04012537
      1.66500000	    -11.69949355	      0.68422080	      8.39458534	     -0.02575096	      1.25961140	     -0.91924492	     36.15033469	     -3.16551525	      5.27212389	     -4.19602131	      0.06628621	    -11.83123433	      1.15958256	     -1.45208569	      9.03517864	     17.77354400	     -7.54291689	     10.45428037	    -15.95225093	      5.07125225	      1.70991105	     -2.21784738	    -12.17752382
      1.67000000	    -11.91943235	      0.81294084	      8.53699394	     -0.01990999	      1.25848921	     -0.91891025	     36.35443722	     -3.34425827	      5.46357522	     -3.62851381	     -0.03857222	    -11.29143937	      1.05470318	     -1.43217834	      9.18402840	     17.62046986	     -7.98631084	     10.74860842	    -15.59917456	      5.24696565	      1.93769899	     -2.40685537	    -12.33273626
      1.67500000	    -12.09556026	      0.94103534	      8.66475685	     -0.01404506	      1.25742248	     -0.91851814	     36.55097790	     -3.48917637	      5.65429309	     -3.26063606	     -0.11351798	    -10.83158857	      0.87554573	     -1.44779513	      9.31804045	     17.43624027	     -8.45077776	     11.04853885	    -15.17917674	      5.45073996	      2.11233698	     -2.58930978	    -12.47692938
      1.68000000	    -12.28284389	      1.02754368	      8.82046666	     -0.00810085	      1.25641100	     -0.91823093	     36.75745603	     -3.60897633	      5.76358565	     -3.01821005	     -0.30432028	    -10.52539990	      0.79474405	     -1.43845743	      9.42074042	     17.34137236	     -8.93809078	     11.24958997	    -14.97646374	      5.57340764	      2.32092089	     -2.71302427	    -12.65250099
      1.68500000	    -12.48266447	      1.11410626	      8.97114223	     -0.00210430	      1.25540473	     -0.91789395	     37.02128474	     -3.70981656	      5.90556833	     -2.98941818	     -0.37440607	    -10.26887021	      0.64508374	     -1.38116562	      9.52076736	     17.18769050	     -9.49431164	     11.50456874	    -14.59728707	      5.76710988	      2.55103361	     -2.84251355	    -12.81627519
      1.69000000	    -12.62005521	      1.19630985	      9.07785023	      0.00395296	      1.25448692	     -0.91747252	     37.25178573	     -3.75041650	      6.06397912	     -3.13775780	     -0.46789199	    -10.11425149	      0.31166167	     -1.37637777	      9.59334766	     16.92612838	    -10.07595998	     11.75859250	    -14.05391000	      6.05119888	      2.71988902	     -2.95988425	    -12.88022018
      1.69500000	    -12.75384569	      1.23619772	      9.26181573	      0.01005541	      1.25365091	     -0.91724019	     37.44947774	     -3.80501094	      6.12318364	     -3.36574426	     -0.61461029	    -10.06280303	      0.18534021	     -1.35779540	      9.64073975	     16.86863243	    -10.68818226	     11.87865948	    -13.83114376	      6.19686706	      2.89335463	     -3.00730638	    -13.09940596
      1.70000000	    -12.90790470	      1.28779744	      9.38521595	      0.01624168	      1.25280429	     -0.91686136	     37.73489940	     -3.80959630	      6.23725498	     -3.80893438	     -0.78424235	    -10.07627745	     -0.07879003	     -1.30096157	      9.68552717	     16.67825936	    -11.33135562	     12.08629221	    -13.34207855	      6.47932528	      3.10384051	     -3.08549632	    -13.18216050
